<svg xmlns="http://www.w3.org/2000/svg" width="58" height="50" viewBox="0 0 58 50"><g id="architecture" transform="translate(-12.698 -8.81)"><path id="Path_9042" data-name="Path 9042" d="M60.79,58.529H58.8A.529.529,0,0,1,58.27,58V16.808a.529.529,0,0,1,.528-.528h1.239a3.322,3.322,0,0,0,2.37-.981,3.357,3.357,0,0,0,.969-2.361.528.528,0,1,1,1.056,0V54.9A3.628,3.628,0,0,1,60.79,58.529Zm-1.454-1.056H60.8a2.594,2.594,0,0,0,2.585-2.587V15.806c-.075.086-.151.162-.226.248a4.42,4.42,0,0,1-3.113,1.294h-.711Z" transform="translate(6.246 0.281)" fill="#8b7c2a"></path><path id="Path_9043" data-name="Path 9043" d="M62.505,53.377H10.688a.529.529,0,0,1-.528-.528V9.338a.529.529,0,0,1,.528-.528H63.755a4.413,4.413,0,0,1,4.405,4.409.528.528,0,1,1-1.056,0,3.343,3.343,0,0,0-3.339-3.342H11.216V52.331h51.29a.529.529,0,0,1,.528.528A.513.513,0,0,1,62.505,53.377Z" transform="translate(2.538 0)" fill="#8b7c2a"></path><path id="Path_9044" data-name="Path 9044" d="M55.154,47.676H17.2a.529.529,0,0,1-.528-.528V14.968a.529.529,0,0,1,.528-.528H55.154a.529.529,0,0,1,.528.528V47.137A.531.531,0,0,1,55.154,47.676ZM17.726,46.609h36.89V15.5H17.726Z" transform="translate(3.04 0.439)" fill="#8b7c2a"></path><path id="Path_9045" data-name="Path 9045" d="M40.868,47.676a.529.529,0,0,1-.528-.528V14.968a.528.528,0,1,1,1.056,0V47.137A.518.518,0,0,1,40.868,47.676Z" transform="translate(4.864 0.439)" fill="#8b7c2a"></path><path id="Path_9046" data-name="Path 9046" d="M42.692,26.516H17.2a.528.528,0,0,1,0-1.056H42.7a.528.528,0,1,1-.011,1.056Z" transform="translate(3.04 1.3)" fill="#8b7c2a"></path><g id="Group_33" data-name="Group 33" transform="translate(30.146 26.749)"><path id="Path_9047" data-name="Path 9047" d="M26.888,46.817a.529.529,0,0,1-.528-.528V25.978a.528.528,0,1,1,1.056,0v20.3A.531.531,0,0,1,26.888,46.817Z" transform="translate(-26.36 -25.45)" fill="#8b7c2a"></path></g></g></svg>