<svg xmlns="http://www.w3.org/2000/svg" width="58" height="53.202" viewBox="0 0 58 53.202"><g id="icon2" transform="translate(-2 -2)"><path id="Path_9057" data-name="Path 9057" d="M59.558,27.3H53.751V9.467h2.593a.49.49,0,0,0,.519-.519V2.519A.49.49,0,0,0,56.343,2h-25.3a.49.49,0,0,0-.519.519V8.326H5.734a.49.49,0,0,0-.519.519v6.326a.49.49,0,0,0,.519.519H8.326V27.3H2.519A.49.49,0,0,0,2,27.823V34.15a.49.49,0,0,0,.519.519H6.771v19.5H2.519a.519.519,0,0,0,0,1.037H59.454a.49.49,0,0,0,.519-.519V27.823C60.077,27.616,59.869,27.3,59.558,27.3Zm-28-24.164H55.825V8.43H31.557Zm0,6.326H52.61V27.409H47.321V15.171a.49.49,0,0,0-.519-.519H31.557Zm14.727,6.326V27.409H39.439V15.793Zm-14.727,0H38.4V27.409H31.557V15.793Zm-25.3-1.141V9.467H30.52v5.289H6.252ZM30.52,15.793V27.409H9.467V15.793ZM25.749,54.269H7.808v-19.5H25.749Zm0-20.638H3.141V28.342H25.749ZM52.61,54.269H45.765V36.327H52.61Zm6.326,0H53.647V35.809a.49.49,0,0,0-.519-.519H45.246a.49.49,0,0,0-.519.519v18.46H26.786V28.446h32.15Z" fill="#8b7c2a"></path><path id="Path_9058" data-name="Path 9058" d="M37.845,34.1H31.519a.49.49,0,0,0-.519.519V47.271a.49.49,0,0,0,.519.519h6.326a.49.49,0,0,0,.519-.519V34.619C38.467,34.307,38.156,34.1,37.845,34.1Zm-.519,12.652H32.037V41.463h5.289Zm0-6.326H32.037V35.137h5.289Z" transform="translate(1.075 1.19)" fill="#8b7c2a"></path><path id="Path_9059" data-name="Path 9059" d="M14.719,21.437H24.26a.519.519,0,0,0,0-1.037H14.719a.49.49,0,0,0-.519.519A.556.556,0,0,0,14.719,21.437Z" transform="translate(0.452 0.682)" fill="#8b7c2a"></path></g></svg>