<svg xmlns="http://www.w3.org/2000/svg" xmlns:xlink="http://www.w3.org/1999/xlink" width="299.411" height="50" viewBox="0 0 299.411 50">
  <defs>
    <clipPath id="clip-path">
      <rect id="Rectangle_6" data-name="Rectangle 6" width="299.411" height="50" fill="none"/>
    </clipPath>
  </defs>
  <g id="Group_8" data-name="Group 8" transform="translate(0 0.001)">
    <path id="Path_35" data-name="Path 35" d="M247.793,0,239.011,16.88,230.229,0h-4.345V20.356h3.072V3.94L237.4,20.356h3.2l8.44-16.385V20.356h3.072V0Z" transform="translate(-131.103)" fill="#fff"/>
    <rect id="Rectangle_4" data-name="Rectangle 4" width="3.072" height="20.357" transform="translate(125.574 -0.001)" fill="#fff"/>
    <path id="Path_36" data-name="Path 36" d="M317.45,0V20.356h18.091V17.594H320.553V0Z" transform="translate(-184.248)" fill="#fff"/>
    <path id="Path_37" data-name="Path 37" d="M364.892,0V20.356h18.091V17.594H368V0Z" transform="translate(-211.783)" fill="#fff"/>
    <path id="Path_38" data-name="Path 38" d="M412.336,0V20.356h17.316V17.594H415.439V11.543h13.592V8.781H415.439V2.761h14.213V0Z" transform="translate(-239.319)" fill="#fff"/>
    <path id="Path_39" data-name="Path 39" d="M479.146,0V16.011L465.493,0h-3.041V20.356h3.01V4.313l13.653,16.043h3.041V0Z" transform="translate(-268.407)" fill="#fff"/>
    <path id="Path_40" data-name="Path 40" d="M536.411,0V16.011L522.758,0h-3.041V20.356h3.01V4.313L536.38,20.356h3.041V0Z" transform="translate(-301.643)" fill="#fff"/>
    <rect id="Rectangle_5" data-name="Rectangle 5" width="3.072" height="20.357" transform="translate(242.35 -0.001)" fill="#fff"/>
    <g id="Group_7" data-name="Group 7" transform="translate(0 -0.001)">
      <g id="Group_6" data-name="Group 6" clip-path="url(#clip-path)">
        <path id="Path_41" data-name="Path 41" d="M604.758,20.729c5.834,0,9.775-3.662,9.775-9.061V0h-3.1V11.73c0,3.817-2.544,6.113-6.672,6.113s-6.641-2.3-6.641-6.113V0h-3.1V11.667c0,5.4,3.91,9.061,9.744,9.061" transform="translate(-345.346)" fill="#fff"/>
        <path id="Path_42" data-name="Path 42" d="M677.291,0h-4.314L664.2,16.88,655.414,0H651.07V20.356h3.072V3.94l8.441,16.416h3.2l8.441-16.385V20.356h3.072Z" transform="translate(-377.88 0)" fill="#fff"/>
        <path id="Path_43" data-name="Path 43" d="M246.689,76.217V76.03c0-4.375-4.655-7.416-11.264-7.416-7.231,0-11.947,4.1-11.947,10.3v.527c0,6.331,4.562,10.271,11.916,10.271,3.537,0,6.33-.962,8.347-2.855l.155,2.483h2.793V78.637h-13.84V81.43h10.768v2.359c-1.924,2.017-4.655,3.041-8.161,3.041-5.679,0-8.844-2.607-8.844-7.354v-.59c0-4.624,3.289-7.385,8.844-7.385,4.53,0,8.1,2.017,8.1,4.53v.186Z" transform="translate(-129.706 -39.824)" fill="#fff"/>
        <path id="Path_44" data-name="Path 44" d="M304.007,75.894c0,2.079-1.583,3.258-4.313,3.258h-9.371V72.263h9.371c2.731,0,4.313,1.179,4.313,3.258Zm3.134-.279c0-3.817-2.793-6.113-7.385-6.113H287.219V89.858h3.1V81.883h6.02l7.168,7.975h3.538v-.465l-6.7-7.51c4.22-.217,6.8-2.483,6.8-5.865Z" transform="translate(-166.702 -40.338)" fill="#fff"/>
        <path id="Path_45" data-name="Path 45" d="M353.04,86.829c-5.337,0-8.5-2.762-8.5-7.385v-.5c0-4.686,3.165-7.447,8.5-7.447s8.471,2.762,8.471,7.447v.5c0,4.624-3.134,7.385-8.471,7.385m0,2.886c7.044,0,11.606-4.065,11.606-10.334v-.4c0-6.3-4.561-10.365-11.606-10.365S341.4,72.679,341.4,78.979v.4c0,6.268,4.593,10.334,11.637,10.334" transform="translate(-198.15 -39.824)" fill="#fff"/>
        <path id="Path_46" data-name="Path 46" d="M414,90.231c5.833,0,9.775-3.662,9.775-9.061V69.5h-3.1v11.73c0,3.817-2.544,6.113-6.672,6.113s-6.641-2.3-6.641-6.113V69.5h-3.1V81.169c0,5.4,3.91,9.061,9.744,9.061" transform="translate(-234.632 -40.339)" fill="#fff"/>
        <path id="Path_47" data-name="Path 47" d="M463.419,79.152V72.263h9.372c2.731,0,4.313,1.179,4.313,3.258v.373c0,2.079-1.582,3.258-4.313,3.258Zm-3.1-9.651V89.858h3.1V81.914h9.434c4.561,0,7.385-2.328,7.385-6.02v-.373c0-3.692-2.824-6.02-7.385-6.02Z" transform="translate(-267.167 -40.338)" fill="#fff"/>
        <path id="Path_48" data-name="Path 48" d="M518.152,73.531h1.223c.362,0,.569.155.569.413v.086c0,.276-.207.448-.569.448h-1.223ZM517.1,72.79v3.531h1.051V75.236h.861l.861,1.085h1.137v-.086l-.879-1.068a1.107,1.107,0,0,0,.9-1.119v-.12c0-.706-.5-1.137-1.378-1.137Zm4.943,1.895c0,1.671-1.137,2.669-3.066,2.669s-3.1-1-3.1-2.669v-.224c0-1.671,1.172-2.687,3.1-2.687s3.066.981,3.066,2.687Zm-3.066-3.841c-2.5,0-4.134,1.43-4.134,3.651v.172c0,2.17,1.636,3.617,4.134,3.617,2.48,0,4.117-1.447,4.117-3.617V74.5c0-2.222-1.636-3.651-4.117-3.651" transform="translate(-298.816 -41.118)" fill="#fff"/>
        <path id="Path_49" data-name="Path 49" d="M550.723,71.433v-.7H548.2v-1.42h-.769v1.153c0,.2-.064.267-.267.267h-1.8v.7h2.05V74.4a1.5,1.5,0,0,0,1.666,1.591H550.4V75.3h-1.26a.844.844,0,0,1-.94-.919V71.433Z" transform="translate(-316.528 -40.226)" fill="#fff"/>
        <path id="Path_50" data-name="Path 50" d="M561.28,77.185c-1.42,0-2.307-.726-2.307-1.911v-.2c0-1.207.854-1.933,2.307-1.933,1.42,0,2.3.737,2.3,1.933v.2c0,1.185-.876,1.911-2.3,1.911m.01.726c1.89,0,3.1-1.025,3.1-2.638v-.2c0-1.623-1.207-2.659-3.1-2.659-1.922,0-3.129,1.025-3.129,2.659v.2c0,1.613,1.207,2.638,3.129,2.638" transform="translate(-323.957 -42.028)" fill="#fff"/>
        <path id="Path_51" data-name="Path 51" d="M577.489,76.876c-1.463,0-2.264-.619-2.264-1.762v-.182c0-1.164.811-1.8,2.264-1.8a2.768,2.768,0,0,1,2.21.993V75.9a2.755,2.755,0,0,1-2.21.972m2.264-4.346-.032.726a3.152,3.152,0,0,0-2.243-.844c-1.933,0-3.064.929-3.064,2.52v.182c0,1.57,1.132,2.477,3.064,2.477a3.356,3.356,0,0,0,2.221-.833v.684c0,.993-.822,1.559-2.232,1.559-1.335,0-2.232-.5-2.232-1.239v-.086h-.8v.086c0,1.2,1.2,1.965,3.054,1.965,1.954,0,3-.812,3-2.307V72.529Z" transform="translate(-333.389 -42.028)" fill="#fff"/>
        <path id="Path_52" data-name="Path 52" d="M594.412,73.138c1.271,0,2.082.609,2.168,1.623h-4.41c.1-1.014.929-1.623,2.242-1.623m3,1.879c0-1.613-1.164-2.606-2.99-2.606-1.879,0-3.086,1.026-3.086,2.638v.235c0,1.6,1.206,2.627,3.086,2.627,1.762,0,2.9-.748,2.99-1.975h-.843c-.043.758-.9,1.249-2.147,1.249-1.367,0-2.221-.662-2.264-1.762h5.254Z" transform="translate(-343.212 -42.028)" fill="#fff"/>
        <path id="Path_53" data-name="Path 53" d="M610.957,71.433v-.7h-2.52v-1.42h-.769v1.153c0,.2-.064.267-.267.267h-1.8v.7h2.05V74.4a1.5,1.5,0,0,0,1.666,1.591h1.324V75.3h-1.26a.844.844,0,0,1-.94-.919V71.433Z" transform="translate(-351.488 -40.226)" fill="#fff"/>
        <path id="Path_54" data-name="Path 54" d="M622.831,69.576a2.948,2.948,0,0,0-2.179.908V67.526h-.79v7.432h.79V71.434a2.434,2.434,0,0,1,2.1-1.132,1.8,1.8,0,0,1,2.061,1.933v2.723h.79V72.235a2.445,2.445,0,0,0-2.776-2.659" transform="translate(-359.767 -39.192)" fill="#fff"/>
        <path id="Path_55" data-name="Path 55" d="M638.892,73.138c1.271,0,2.082.609,2.168,1.623h-4.41c.1-1.014.929-1.623,2.242-1.623m3,1.879c0-1.613-1.164-2.606-2.99-2.606-1.879,0-3.086,1.026-3.086,2.638v.235c0,1.6,1.206,2.627,3.086,2.627,1.762,0,2.9-.748,2.99-1.975h-.843c-.043.758-.9,1.249-2.147,1.249-1.367,0-2.221-.662-2.264-1.762h5.254Z" transform="translate(-369.028 -42.028)" fill="#fff"/>
        <path id="Path_56" data-name="Path 56" d="M655.889,72.692a2.733,2.733,0,0,0-1.975.715l-.032-.715h-.737v5.264h.79V74.251a2.163,2.163,0,0,1,1.858-.854h1.143v-.7Z" transform="translate(-379.085 -42.19)" fill="#fff"/>
        <path id="Path_57" data-name="Path 57" d="M680.048,72.692l-2.007,4.57-2.018-4.57h-.8l-1.986,4.56-1.986-4.56h-.822v.117l2.3,5.147h1.025l1.879-4.293,1.89,4.293h1.036l2.285-5.147v-.117Z" transform="translate(-389.115 -42.19)" fill="#fff"/>
        <path id="Path_58" data-name="Path 58" d="M699.027,73.138c1.271,0,2.082.609,2.168,1.623h-4.41c.1-1.014.929-1.623,2.242-1.623m3,1.879c0-1.613-1.164-2.606-2.99-2.606-1.879,0-3.086,1.026-3.086,2.638v.235c0,1.6,1.206,2.627,3.086,2.627,1.762,0,2.9-.748,2.99-1.975h-.843c-.043.758-.9,1.249-2.147,1.249-1.367,0-2.221-.662-2.264-1.762h5.254Z" transform="translate(-403.93 -42.028)" fill="#fff"/>
        <path id="Path_59" data-name="Path 59" d="M552.815,99.416c0,1.207-.876,1.933-2.317,1.933a2.682,2.682,0,0,1-2.157-.961V98.252a2.661,2.661,0,0,1,2.157-.95c1.441,0,2.317.715,2.317,1.922Zm-2.242-2.84a3.118,3.118,0,0,0-2.232.833V94.526h-.79v7.432h.737l.032-.726a3.141,3.141,0,0,0,2.253.843c1.858,0,3.054-1.036,3.054-2.659v-.192c0-1.634-1.2-2.648-3.054-2.648" transform="translate(-317.798 -54.863)" fill="#fff"/>
        <path id="Path_60" data-name="Path 60" d="M569.251,99.692v3.535a2.4,2.4,0,0,1-2.1,1.121c-1.335,0-2.061-.673-2.061-1.922V99.692h-.79v2.734c0,1.741.95,2.648,2.776,2.648a2.937,2.937,0,0,0,2.2-.918l.032.8h.737V99.692Z" transform="translate(-327.517 -57.861)" fill="#fff"/>
        <path id="Path_61" data-name="Path 61" d="M581.987,95.95a.539.539,0,0,0,.566-.545.568.568,0,0,0-1.132,0,.539.539,0,0,0,.566.545m-.4,6.215h.79V96.9h-.79Z" transform="translate(-337.456 -55.069)" fill="#fff"/>
        <path id="Path_62" data-name="Path 62" d="M590.047,101.958v-.694h-.459c-.6,0-.833-.224-.833-.769V94.526h-.791v6.1c0,.886.491,1.335,1.485,1.335Z" transform="translate(-341.254 -54.863)" fill="#fff"/>
        <path id="Path_63" data-name="Path 63" d="M596.676,101.35c-1.441,0-2.317-.726-2.317-1.933v-.192c0-1.207.876-1.922,2.317-1.922a2.661,2.661,0,0,1,2.157.95v2.135a2.682,2.682,0,0,1-2.157.961m2.157-6.824v2.883a3.117,3.117,0,0,0-2.232-.833c-1.858,0-3.054,1.015-3.054,2.649v.192c0,1.623,1.2,2.659,3.054,2.659a3.141,3.141,0,0,0,2.253-.843l.032.726h.737V94.526Z" transform="translate(-344.494 -54.863)" fill="#fff"/>
        <path id="Path_64" data-name="Path 64" d="M80,.283H0v35.4l11.6-8.063V50.164H26.7V12.952L38.3,4.89V50.164H53.4V12.952L65,4.89V50.164H80Z" transform="translate(0 -0.164)" fill="#fff" fill-rule="evenodd"/>
      </g>
    </g>
  </g>
</svg>
