<svg xmlns="http://www.w3.org/2000/svg" width="58" height="57.675" viewBox="0 0 58 57.675"><g id="icon3" transform="translate(-0.8 -0.723)"><path id="Path_9060" data-name="Path 9060" d="M4.022,36.446H55.175a3.222,3.222,0,1,0,0-6.444h-.4v-.4a25.662,25.662,0,0,0-7.351-17.823A23.182,23.182,0,0,0,44,8.957l-.2-.1v-.2a4.235,4.235,0,0,0-4.128-4.229H34.734l-.1-.3A5.387,5.387,0,0,0,27.685,1.1a4.987,4.987,0,0,0-3.021,3.021l-.1.3H19.63A4.126,4.126,0,0,0,15.5,8.554v.2l-.2.2A25.008,25.008,0,0,0,4.425,29.6V30h-.4a3.222,3.222,0,0,0,0,6.444ZM5.432,29.6A23.9,23.9,0,0,1,14.7,10.669l.6-.5v7.653a.5.5,0,1,0,1.007,0V8.655a3.137,3.137,0,0,1,3.122-3.122h4.33l.1.2a.1.1,0,0,0,.1.1l.2.1L22.651,26.88a.476.476,0,0,0,.5.5.461.461,0,0,0,.5-.4l1.51-21.045a4.394,4.394,0,0,1,8.76,0l1.51,20.944a.476.476,0,0,0,.5.5h0a.539.539,0,0,0,.5-.5L35.036,5.835l.2-.3.3-.1h4.128A3.095,3.095,0,0,1,42.79,8.554v9.163a.5.5,0,1,0,1.007,0V10.064l.6.5a20.135,20.135,0,0,1,2.215,1.913A24.149,24.149,0,0,1,53.665,29.6V30H5.432ZM2.411,31.714a2.346,2.346,0,0,1,1.51-.7H55.175a2.469,2.469,0,0,1,1.611.6,2.346,2.346,0,0,1,.7,1.51,2.32,2.32,0,0,1-2.215,2.316H3.922a2.049,2.049,0,0,1-1.51-.6,2.346,2.346,0,0,1-.7-1.51A2.593,2.593,0,0,1,2.411,31.714Z" transform="translate(0 0)" fill="#8b7c2a"></path><path id="Path_9061" data-name="Path 9061" d="M56.081,40.713H53.966l-.1-.2A4.249,4.249,0,0,0,50.542,38.9L8.653,38.8a4.06,4.06,0,0,0-3.323,1.712l-.1.2H3.216A2.279,2.279,0,0,0,.9,43.029v1.813a2.279,2.279,0,0,0,2.316,2.316H4.525v.4a4.336,4.336,0,0,0,.906,2.215l5.437,6.747.2.2h.1l.1.1a4.033,4.033,0,0,0,2.92,1.208h7.955a4.2,4.2,0,0,0,4.128-3.424l.906-5.236A2.722,2.722,0,0,1,29.9,47.057h0a2.886,2.886,0,0,1,2.719,2.316l.906,5.236a4.134,4.134,0,0,0,4.128,3.524h7.955a4.275,4.275,0,0,0,3.222-1.51l5.438-6.747a4.681,4.681,0,0,0,.906-2.316v-.4h1.309A2.279,2.279,0,0,0,58.8,44.842V43.029A2.979,2.979,0,0,0,56.081,40.713ZM4.525,42.224a2.217,2.217,0,0,0-.1.806v3.222H3.115a1.333,1.333,0,0,1-1.309-1.309V43.029A1.333,1.333,0,0,1,3.115,41.72h1.51Zm1.611,6.948a3.434,3.434,0,0,1-.7-1.913V43.029a3.137,3.137,0,0,1,3.122-3.122H16.81L6.74,49.977Zm1.309,1.51L18.32,39.807h8.861L11.372,55.616Zm25.878-1.41A3.7,3.7,0,0,0,29.6,46.151h0a3.78,3.78,0,0,0-3.726,3.122l-.906,5.236a3.143,3.143,0,0,1-3.122,2.618H13.89a2.842,2.842,0,0,1-1.51-.4l-.3-.3L28.591,39.908h17.42L33.726,52.092Zm3.927,7.854h0a3.224,3.224,0,0,1-3.122-2.618l-.2-1.108.1-.1L47.32,40.008h3.122a3.153,3.153,0,0,1,3.122,2.719v.3l-14,14.1Zm16.514-9.868a3.078,3.078,0,0,1-.7,2.014l-5.437,6.747a3.322,3.322,0,0,1-2.417,1.208H41.077L53.765,44.338Zm3.625-2.417a1.333,1.333,0,0,1-1.309,1.309H54.772V43.029a2.788,2.788,0,0,0-.1-.906l-.1-.5h1.51a1.333,1.333,0,0,1,1.309,1.309Z" transform="translate(0.001 0.264)" fill="#8b7c2a"></path></g></svg>